<svg xmlns="http://www.w3.org/2000/svg" xmlns:xlink="http://www.w3.org/1999/xlink" width="80" height="82" version="1.1" viewBox="0 0 80 82"><title>chevron</title><desc>Created with Sketch.</desc><defs><circle id="path-1" cx="25.5" cy="34.5" r="17.5"/><filter id="filter-2" width="200%" height="200%" x="-50%" y="-50%" filterUnits="objectBoundingBox"><feOffset dx="0" dy="2" in="SourceAlpha" result="shadowOffsetOuter1"/><feGaussianBlur in="shadowOffsetOuter1" result="shadowBlurOuter1" stdDeviation="7.5"/><feColorMatrix in="shadowBlurOuter1" type="matrix" values="0 0 0 0 0 0 0 0 0 0 0 0 0 0 0 0 0 0 0.42 0"/></filter><linearGradient id="linearGradient-3" x1="50%" x2="50%" y1="0%" y2="100%"><stop offset="0%" stop-color="#FFF" stop-opacity=".5"/><stop offset="100%" stop-color="#000" stop-opacity=".5"/></linearGradient><circle id="path-4" cx="25" cy="25" r="25"/><filter id="filter-5" width="200%" height="200%" x="-50%" y="-50%" filterUnits="objectBoundingBox"><feOffset dx="0" dy="2" in="SourceAlpha" result="shadowOffsetOuter1"/><feGaussianBlur in="shadowOffsetOuter1" result="shadowBlurOuter1" stdDeviation="7.5"/><feColorMatrix in="shadowBlurOuter1" type="matrix" values="0 0 0 0 0 0 0 0 0 0 0 0 0 0 0 0 0 0 0.2 0"/></filter></defs><g id="-Page-1" fill="none" fill-rule="evenodd" stroke="none" stroke-width="1"><g id="cabin" transform="translate(-118.000000, -878.000000)"><g id="chevron" transform="translate(133.000000, 891.000000)"><g id="Oval-18" fill="#000" fill-opacity="1"><use filter="url(#filter-2)" xlink:href="#path-1"/></g><g id="Oval-18"><use fill="#000" fill-opacity="1" filter="url(#filter-5)" xlink:href="#path-4"/><use fill="#3F4751" fill-rule="evenodd" xlink:href="#path-4"/><use fill="url(#linearGradient-3)" fill-opacity=".07" fill-rule="evenodd" xlink:href="#path-4"/></g><path id="chevron-down" fill="#FFF" d="M24.5,32.1377965 C24.1435881,32.1377965 23.8025726,31.9926766 23.5555739,31.7355228 L15.3659618,23.2186538 C14.8641024,22.6971393 14.8804816,21.8673678 15.4023237,21.3658359 C15.9238382,20.8643041 16.7532821,20.8803557 17.254814,21.4021978 L24.5,28.9369685 L31.745186,21.4021978 C32.2463903,20.8806833 33.0758342,20.8643041 33.5976763,21.3658359 C34.1195184,21.8673678 34.1358976,22.6971393 33.6340382,23.2186538 L25.4444261,31.7355228 C25.1974274,31.9926766 24.8564119,32.1377965 24.5,32.1377965"/></g></g></g></svg>